<?xml version="1.0" encoding="UTF-8" standalone="no"?>
<svg
   width="276.40628"
   zoomAndPan="magnify"
   viewBox="0 0 207.30471 122.09766"
   height="162.79688"
   preserveAspectRatio="xMidYMid"
   version="1.0"
   id="svg316"
   xmlns="http://www.w3.org/2000/svg"
   xmlns:svg="http://www.w3.org/2000/svg">
  <defs
     id="defs122">
    <clipPath
       id="7d588a0ecf">
      <path
         d="m 254.02734,244.71094 h 101.21875 v 67.91015 H 254.02734 Z m 0,0"
         clip-rule="nonzero"
         id="path73" />
    </clipPath>
    <clipPath
       id="e2a8b22491">
      <path
         d="m 292.58984,312.35937 c 1.63672,-1.16015 3.41797,-2.14843 5.32813,-2.94921 3.35156,-1.39063 6.85156,-2.08985 10.41015,-2.08985 h 46.67969 v -11.33984 h -39.69922 c -1.28906,0 -2.55859,0.12109 -3.80078,0.33203 l 30.82031,-30.82031 -8.01953,-8.01953 -30.33984,30.33984 v -42.85938 h -11.33984 v 42.85938 l -30.33985,-30.33984 -8.01953,8.01953 31.71875,31.71875 c 4.07031,4.07031 6.37891,9.42968 6.60156,15.14843"
         clip-rule="nonzero"
         id="path74" />
    </clipPath>
    <clipPath
       id="15ceb69957">
      <path
         d="M 0.160156,0.800781 H 101.19922 V 68.480469 H 0.160156 Z m 0,0"
         clip-rule="nonzero"
         id="path75" />
    </clipPath>
    <clipPath
       id="6dd994715f">
      <path
         d="m 38.589844,68.359375 c 1.636718,-1.160156 3.417968,-2.148437 5.328125,-2.949219 3.351562,-1.390625 6.851562,-2.089844 10.410156,-2.089844 H 101.00781 V 51.980469 H 61.308594 c -1.289063,0 -2.558594,0.121093 -3.800782,0.332031 L 88.328125,21.492188 80.308594,13.472656 49.96875,43.8125 V 0.953125 H 38.628906 V 43.8125 L 8.289062,13.472656 l -8.019531,8.019532 31.71875,31.71875 c 4.070313,4.070312 6.378907,9.429687 6.601563,15.148437"
         clip-rule="nonzero"
         id="path76" />
    </clipPath>
    <clipPath
       id="f7ab4eab39">
      <rect
         x="0"
         width="102"
         y="0"
         height="69"
         id="rect76" />
    </clipPath>
    <clipPath
       id="85d5ccde56">
      <path
         d="m 292.52344,318.24219 h 50.17578 v 48.8789 h -50.17578 z m 0,0"
         clip-rule="nonzero"
         id="path77" />
    </clipPath>
    <clipPath
       id="2d76610541">
      <path
         d="m 303.96875,367.05078 h -11.33984 v -32.75 c 0,-6.42969 3.6914,-11.94922 9.6289,-14.41016 5.94141,-2.46093 12.44922,-1.16796 16.99219,3.37891 l 23.07812,23.08203 -8.01953,8.01953 -23.08203,-23.07812 c -1.80859,-1.8125 -3.83984,-1.25 -4.6289,-0.92188 -0.78907,0.32813 -2.62891,1.35938 -2.62891,3.92969 z m 0,0"
         clip-rule="nonzero"
         id="path78" />
    </clipPath>
    <clipPath
       id="a831db05ee">
      <path
         d="M 0.558594,0.242188 H 50.480469 V 49.121094 H 0.558594 Z m 0,0"
         clip-rule="nonzero"
         id="path79" />
    </clipPath>
    <clipPath
       id="6a69feb23c">
      <path
         d="M 11.96875,49.050781 H 0.628906 v -32.75 c 0,-6.429687 3.691406,-11.949219 9.628906,-14.410156 C 16.199219,-0.570312 22.707031,0.722656 27.25,5.269531 L 50.328125,28.351562 42.308594,36.371094 19.226562,13.292969 c -1.808593,-1.8125 -3.839843,-1.25 -4.628906,-0.921875 -0.789062,0.328125 -2.628906,1.359375 -2.628906,3.929687 z m 0,0"
         clip-rule="nonzero"
         id="path80" />
    </clipPath>
    <clipPath
       id="66a8c11758">
      <rect
         x="0"
         width="51"
         y="0"
         height="50"
         id="rect80" />
    </clipPath>
    <clipPath
       id="57c7d50187">
      <path
         d="m 254.46094,301 h 26.8164 v 11.62109 h -26.8164 z m 0,0"
         clip-rule="nonzero"
         id="path81" />
    </clipPath>
    <clipPath
       id="fb146ec508">
      <path
         d="m 277.96875,305.23047 -4.21094,-4.21094 h -18.91797 v 11.33984 h 26.37891 c -0.21094,-2.72656 -1.32031,-5.1875 -3.25,-7.1289"
         clip-rule="nonzero"
         id="path82" />
    </clipPath>
    <clipPath
       id="5d314cf9f4">
      <path
         d="M 0.640625,0 H 27.277344 V 11.480469 H 0.640625 Z m 0,0"
         clip-rule="nonzero"
         id="path83" />
    </clipPath>
    <clipPath
       id="5c56dcc8c4">
      <path
         d="M 23.96875,4.230469 19.757812,0.0195312 H 0.839844 V 11.359375 H 27.21875 c -0.210938,-2.726563 -1.320312,-5.1875 -3.25,-7.128906"
         clip-rule="nonzero"
         id="path84" />
    </clipPath>
    <clipPath
       id="4365dc07ce">
      <rect
         x="0"
         width="28"
         y="0"
         height="12"
         id="rect84" />
    </clipPath>
  </defs>
  <g
     clip-path="url(#7d588a0ecf)"
     id="g244"
     transform="translate(-254.26952,-244.95312)">
    <g
       clip-path="url(#e2a8b22491)"
       id="g243">
      <g
         transform="translate(254,244)"
         id="g242">
        <g
           clip-path="url(#f7ab4eab39)"
           id="g241">
          <g
             clip-path="url(#15ceb69957)"
             id="g240">
            <g
               clip-path="url(#6dd994715f)"
               id="g239">
              <rect
                 x="-428.23999"
                 width="1140.48"
                 fill="#f7f5f1"
                 height="881.28003"
                 y="-378.64001"
                 fill-opacity="1"
                 id="rect238" />
            </g>
          </g>
        </g>
      </g>
    </g>
  </g>
  <g
     clip-path="url(#85d5ccde56)"
     id="g250"
     transform="translate(-254.26952,-244.95312)">
    <g
       clip-path="url(#2d76610541)"
       id="g249">
      <g
         transform="translate(292,318)"
         id="g248">
        <g
           clip-path="url(#66a8c11758)"
           id="g247">
          <g
             clip-path="url(#a831db05ee)"
             id="g246">
            <g
               clip-path="url(#6a69feb23c)"
               id="g245">
              <rect
                 x="-466.23999"
                 width="1140.48"
                 fill="#f7f5f1"
                 height="881.28003"
                 y="-452.64001"
                 fill-opacity="1"
                 id="rect244" />
            </g>
          </g>
        </g>
      </g>
    </g>
  </g>
  <g
     clip-path="url(#57c7d50187)"
     id="g256"
     transform="translate(-254.26952,-244.95312)">
    <g
       clip-path="url(#fb146ec508)"
       id="g255">
      <g
         transform="translate(254,301)"
         id="g254">
        <g
           clip-path="url(#4365dc07ce)"
           id="g253">
          <g
             clip-path="url(#5d314cf9f4)"
             id="g252">
            <g
               clip-path="url(#5c56dcc8c4)"
               id="g251">
              <rect
                 x="-428.23999"
                 width="1140.48"
                 fill="#f7f5f1"
                 height="881.28003"
                 y="-435.64001"
                 fill-opacity="1"
                 id="rect250" />
            </g>
          </g>
        </g>
      </g>
    </g>
  </g>
</svg>
