<?xml version="1.0" encoding="UTF-8" standalone="no"?>
<svg
   width="377.95316"
   zoomAndPan="magnify"
   viewBox="0 0 283.46487 122.09766"
   height="162.79688"
   preserveAspectRatio="xMidYMid"
   version="1.0"
   id="svg316"
   xmlns="http://www.w3.org/2000/svg"
   xmlns:svg="http://www.w3.org/2000/svg">
  <defs
     id="defs122">
    <clipPath
       id="7d588a0ecf">
      <path
         d="m 254.02734,244.71094 h 101.21875 v 67.91015 H 254.02734 Z m 0,0"
         clip-rule="nonzero"
         id="path73" />
    </clipPath>
    <clipPath
       id="e2a8b22491">
      <path
         d="m 292.58984,312.35937 c 1.63672,-1.16015 3.41797,-2.14843 5.32813,-2.94921 3.35156,-1.39063 6.85156,-2.08985 10.41015,-2.08985 h 46.67969 v -11.33984 h -39.69922 c -1.28906,0 -2.55859,0.12109 -3.80078,0.33203 l 30.82031,-30.82031 -8.01953,-8.01953 -30.33984,30.33984 v -42.85938 h -11.33984 v 42.85938 l -30.33985,-30.33984 -8.01953,8.01953 31.71875,31.71875 c 4.07031,4.07031 6.37891,9.42968 6.60156,15.14843"
         clip-rule="nonzero"
         id="path74" />
    </clipPath>
    <clipPath
       id="15ceb69957">
      <path
         d="M 0.160156,0.800781 H 101.19922 V 68.480469 H 0.160156 Z m 0,0"
         clip-rule="nonzero"
         id="path75" />
    </clipPath>
    <clipPath
       id="6dd994715f">
      <path
         d="m 38.589844,68.359375 c 1.636718,-1.160156 3.417968,-2.148437 5.328125,-2.949219 3.351562,-1.390625 6.851562,-2.089844 10.410156,-2.089844 H 101.00781 V 51.980469 H 61.308594 c -1.289063,0 -2.558594,0.121093 -3.800782,0.332031 L 88.328125,21.492188 80.308594,13.472656 49.96875,43.8125 V 0.953125 H 38.628906 V 43.8125 L 8.289062,13.472656 l -8.019531,8.019532 31.71875,31.71875 c 4.070313,4.070312 6.378907,9.429687 6.601563,15.148437"
         clip-rule="nonzero"
         id="path76" />
    </clipPath>
    <clipPath
       id="f7ab4eab39">
      <rect
         x="0"
         width="102"
         y="0"
         height="69"
         id="rect76" />
    </clipPath>
    <clipPath
       id="85d5ccde56">
      <path
         d="m 292.52344,318.24219 h 50.17578 v 48.8789 h -50.17578 z m 0,0"
         clip-rule="nonzero"
         id="path77" />
    </clipPath>
    <clipPath
       id="2d76610541">
      <path
         d="m 303.96875,367.05078 h -11.33984 v -32.75 c 0,-6.42969 3.6914,-11.94922 9.6289,-14.41016 5.94141,-2.46093 12.44922,-1.16796 16.99219,3.37891 l 23.07812,23.08203 -8.01953,8.01953 -23.08203,-23.07812 c -1.80859,-1.8125 -3.83984,-1.25 -4.6289,-0.92188 -0.78907,0.32813 -2.62891,1.35938 -2.62891,3.92969 z m 0,0"
         clip-rule="nonzero"
         id="path78" />
    </clipPath>
    <clipPath
       id="a831db05ee">
      <path
         d="M 0.558594,0.242188 H 50.480469 V 49.121094 H 0.558594 Z m 0,0"
         clip-rule="nonzero"
         id="path79" />
    </clipPath>
    <clipPath
       id="6a69feb23c">
      <path
         d="M 11.96875,49.050781 H 0.628906 v -32.75 c 0,-6.429687 3.691406,-11.949219 9.628906,-14.410156 C 16.199219,-0.570312 22.707031,0.722656 27.25,5.269531 L 50.328125,28.351562 42.308594,36.371094 19.226562,13.292969 c -1.808593,-1.8125 -3.839843,-1.25 -4.628906,-0.921875 -0.789062,0.328125 -2.628906,1.359375 -2.628906,3.929687 z m 0,0"
         clip-rule="nonzero"
         id="path80" />
    </clipPath>
    <clipPath
       id="66a8c11758">
      <rect
         x="0"
         width="51"
         y="0"
         height="50"
         id="rect80" />
    </clipPath>
    <clipPath
       id="57c7d50187">
      <path
         d="m 254.46094,301 h 26.8164 v 11.62109 h -26.8164 z m 0,0"
         clip-rule="nonzero"
         id="path81" />
    </clipPath>
    <clipPath
       id="fb146ec508">
      <path
         d="m 277.96875,305.23047 -4.21094,-4.21094 h -18.91797 v 11.33984 h 26.37891 c -0.21094,-2.72656 -1.32031,-5.1875 -3.25,-7.1289"
         clip-rule="nonzero"
         id="path82" />
    </clipPath>
    <clipPath
       id="5d314cf9f4">
      <path
         d="M 0.640625,0 H 27.277344 V 11.480469 H 0.640625 Z m 0,0"
         clip-rule="nonzero"
         id="path83" />
    </clipPath>
    <clipPath
       id="5c56dcc8c4">
      <path
         d="M 23.96875,4.230469 19.757812,0.0195312 H 0.839844 V 11.359375 H 27.21875 c -0.210938,-2.726563 -1.320312,-5.1875 -3.25,-7.128906"
         clip-rule="nonzero"
         id="path84" />
    </clipPath>
    <clipPath
       id="4365dc07ce">
      <rect
         x="0"
         width="28"
         y="0"
         height="12"
         id="rect84" />
    </clipPath>
    <clipPath
       id="c726e8cc66">
      <path
         d="M 375.75391,244.79687 H 400 v 26.75 h -24.24609 z m 0,0"
         clip-rule="nonzero"
         id="path85" />
    </clipPath>
    <clipPath
       id="95e1e67b21">
      <path
         d="m 387.9375,248.69531 -8.47266,22.77344 h -3.54687 l 9.41797,-24.74219 c 0.42187,-1.07031 1.44922,-1.76953 2.60156,-1.76953 1.14844,0 2.17969,0.69922 2.59766,1.76953 l 9.42187,24.73047 h -3.8125 z m 0,0"
         clip-rule="nonzero"
         id="path86" />
    </clipPath>
    <clipPath
       id="800401ee64">
      <path
         d="M 0.839844,0.800781 H 25 V 27.546875 H 0.839844 Z m 0,0"
         clip-rule="nonzero"
         id="path87" />
    </clipPath>
    <clipPath
       id="2bc4c1bb39">
      <path
         d="M 12.9375,4.695312 4.464844,27.46875 H 0.917969 L 10.335938,2.726562 C 10.757812,1.65625 11.785156,0.957031 12.9375,0.957031 c 1.148438,0 2.179688,0.699219 2.597656,1.769531 l 9.421875,24.730469 h -3.8125 z m 0,0"
         clip-rule="nonzero"
         id="path88" />
    </clipPath>
    <clipPath
       id="80d3ec8c33">
      <rect
         x="0"
         width="25"
         y="0"
         height="28"
         id="rect88" />
    </clipPath>
    <clipPath
       id="0f6cecfc66">
      <path
         d="m 401.08203,244.79687 h 23.90625 v 27.32032 h -23.90625 z m 0,0"
         clip-rule="nonzero"
         id="path89" />
    </clipPath>
    <clipPath
       id="f5bedf373f">
      <path
         d="m 421.85547,268.23828 c -1.98828,2.71875 -5.25781,3.83984 -8.30078,3.83984 -7.71875,0 -12.32813,-6.3125 -12.32813,-13.05078 0,-7.53906 4.12891,-14.07031 12.32813,-14.07031 5.65234,0 10.15234,2.53906 11.13281,8.58984 h -3.44141 c -0.6914,-3.91796 -3.83984,-5.6914 -7.6914,-5.6914 -6.26953,0 -8.87891,5.4414 -8.87891,10.99219 0,5.39843 3.12109,10.32812 8.87891,10.32812 5.33203,0 8.51953,-3.73047 8.30078,-8.44922 h -8.25781 v -2.89844 h 11.33984 v 13.64063 h -2.17188 z m 0,0"
         clip-rule="nonzero"
         id="path90" />
    </clipPath>
    <clipPath
       id="e2370b894c">
      <path
         d="M 0.0820312,0.800781 H 23.988281 V 28.117188 H 0.0820312 Z m 0,0"
         clip-rule="nonzero"
         id="path91" />
    </clipPath>
    <clipPath
       id="b316bc2491">
      <path
         d="m 20.855469,24.238281 c -1.988281,2.71875 -5.257813,3.839844 -8.300781,3.839844 -7.71875,0 -12.328126,-6.3125 -12.328126,-13.050781 0,-7.539063 4.128907,-14.070313 12.328126,-14.070313 5.652343,0 10.152343,2.539063 11.132812,8.589844 H 20.246094 C 19.554688,5.628906 16.40625,3.855469 12.554688,3.855469 c -6.269532,0 -8.878907,5.441406 -8.878907,10.992187 0,5.398438 3.121094,10.328125 8.878907,10.328125 5.332031,0 8.519531,-3.730469 8.300781,-8.449219 H 12.597656 V 13.828125 H 23.9375 V 27.46875 h -2.171875 z m 0,0"
         clip-rule="nonzero"
         id="path92" />
    </clipPath>
    <clipPath
       id="7914e2b035">
      <rect
         x="0"
         width="24"
         y="0"
         height="29"
         id="rect92" />
    </clipPath>
    <clipPath
       id="9e00131064">
      <path
         d="m 430,245.36328 h 20.31641 v 26.18359 H 430 Z m 0,0"
         clip-rule="nonzero"
         id="path93" />
    </clipPath>
    <clipPath
       id="af44f1308e">
      <path
         d="m 440.64453,257.82812 c 3.23047,0 5.98047,-1.16015 5.98047,-4.92968 0,-2.54297 -1.37891,-4.42188 -4.60938,-4.42188 h -8.55078 v 9.35938 z m 8.8125,13.62891 h -3.26953 v -6.37891 c 0,-2.57031 -0.98047,-4.35156 -4.3125,-4.35156 h -8.41016 v 10.74219 h -3.44922 v -25.89063 h 12.19141 c 4.85938,0 7.86719,2.64844 7.86719,6.77735 0,3.12109 -1.37891,5.6914 -4.5,6.5625 v 0.0703 c 3.01172,0.57813 3.88281,2.73828 3.88281,5.32813 z m 0,0"
         clip-rule="nonzero"
         id="path94" />
    </clipPath>
    <clipPath
       id="29485efddf">
      <path
         d="M 0,0.519531 H 20.238281 V 26.546875 H 0 Z m 0,0"
         clip-rule="nonzero"
         id="path95" />
    </clipPath>
    <clipPath
       id="30de08a1a0">
      <path
         d="m 10.644531,12.828125 c 3.230469,0 5.980469,-1.160156 5.980469,-4.929687 0,-2.542969 -1.378906,-4.421876 -4.609375,-4.421876 H 3.464844 v 9.359376 z m 8.8125,13.628906 H 16.1875 v -6.378906 c 0,-2.570313 -0.980469,-4.351563 -4.3125,-4.351563 H 3.464844 V 26.46875 H 0.015625 V 0.578125 h 12.191406 c 4.859375,0 7.867188,2.648437 7.867188,6.777344 0,3.121093 -1.378907,5.691406 -4.5,6.5625 v 0.07031 c 3.011719,0.578125 3.882812,2.738281 3.882812,5.328125 z m 0,0"
         clip-rule="nonzero"
         id="path96" />
    </clipPath>
    <clipPath
       id="6f063d76f4">
      <rect
         x="0"
         width="21"
         y="0"
         height="27"
         id="rect96" />
    </clipPath>
    <clipPath
       id="60789df390">
      <path
         d="m 433,281.22266 h 20.44531 v 26.17968 H 433 Z m 0,0"
         clip-rule="nonzero"
         id="path97" />
    </clipPath>
    <clipPath
       id="32f5fb9c95">
      <path
         d="m 443.77734,293.55859 c 3.22657,0 5.97657,-1.16015 5.97657,-4.92968 0,-2.54297 -1.37891,-4.42188 -4.60938,-4.42188 h -8.55078 v 9.35156 z m 8.8086,13.62891 h -3.26953 v -6.37109 c 0,-2.57032 -0.98047,-4.34766 -4.3125,-4.34766 h -8.41016 v 10.72656 h -3.44922 v -25.88672 h 12.19141 c 4.85937,0 7.87109,2.64844 7.87109,6.77735 0,3.12109 -1.38281,5.6914 -4.5,6.5625 v 0.0703 c 3.00781,0.57812 3.87891,2.73828 3.87891,5.32812 z m 0,0"
         clip-rule="nonzero"
         id="path98" />
    </clipPath>
    <clipPath
       id="465cfe7227">
      <path
         d="M 0,0.28125 H 20.359375 V 26.199219 H 0 Z m 0,0"
         clip-rule="nonzero"
         id="path99" />
    </clipPath>
    <clipPath
       id="c3a6275a1c">
      <path
         d="m 10.777344,12.558594 c 3.226562,0 5.976562,-1.160156 5.976562,-4.929688 0,-2.542968 -1.378906,-4.421875 -4.609375,-4.421875 H 3.59375 v 9.351563 z M 19.585938,26.1875 h -3.269532 v -6.371094 c 0,-2.570312 -0.980468,-4.347656 -4.3125,-4.347656 H 3.59375 V 26.195312 H 0.144531 V 0.308594 h 12.191407 c 4.859374,0 7.871093,2.648437 7.871093,6.777344 0,3.121093 -1.382812,5.691406 -4.5,6.5625 v 0.07031 c 3.007813,0.578125 3.878907,2.738281 3.878907,5.328125 z m 0,0"
         clip-rule="nonzero"
         id="path100" />
    </clipPath>
    <clipPath
       id="526994602e">
      <rect
         x="0"
         width="21"
         y="0"
         height="27"
         id="rect100" />
    </clipPath>
    <clipPath
       id="f9f17ade6b">
      <path
         d="m 453.16016,244.79687 h 25.32812 v 27.32032 h -25.32812 z m 0,0"
         clip-rule="nonzero"
         id="path101" />
    </clipPath>
    <clipPath
       id="d5c703e01f">
      <path
         d="m 465.81641,269.17578 c 6.30859,0 8.95703,-5.4375 8.95703,-10.66016 0,-5.21875 -2.65625,-10.66015 -8.95703,-10.66015 -6.30079,0 -8.96094,5.4414 -8.96094,10.66015 0,5.22266 2.64844,10.66016 8.96094,10.66016 m 0,-24.21875 c 8.23046,0 12.39843,6.53125 12.39843,13.55859 0,7.03125 -4.16797,13.5625 -12.39843,13.5625 -8.23047,0 -12.40235,-6.53125 -12.40235,-13.5625 0,-7.02734 4.16016,-13.55859 12.40235,-13.55859"
         clip-rule="nonzero"
         id="path102" />
    </clipPath>
    <clipPath
       id="afd0ff80ed">
      <path
         d="M 0.359375,0.800781 H 25.320312 V 28.117188 H 0.359375 Z m 0,0"
         clip-rule="nonzero"
         id="path103" />
    </clipPath>
    <clipPath
       id="7397114c01">
      <path
         d="m 12.816406,25.175781 c 6.308594,0 8.957032,-5.4375 8.957032,-10.660156 0,-5.21875 -2.65625,-10.660156 -8.957032,-10.660156 -6.300781,0 -8.960937,5.441406 -8.960937,10.660156 0,5.222656 2.648437,10.660156 8.960937,10.660156 m 0,-24.21875 c 8.230469,0 12.398438,6.53125 12.398438,13.558594 0,7.03125 -4.167969,13.5625 -12.398438,13.5625 -8.230468,0 -12.402344,-6.53125 -12.402344,-13.5625 0,-7.027344 4.160157,-13.558594 12.402344,-13.558594"
         clip-rule="nonzero"
         id="path104" />
    </clipPath>
    <clipPath
       id="2297631f37">
      <rect
         x="0"
         width="26"
         y="0"
         height="29"
         id="rect104" />
    </clipPath>
    <clipPath
       id="243f18ddc0">
      <path
         d="m 404,280.65234 h 24.97266 v 27.32032 H 404 Z m 0,0"
         clip-rule="nonzero"
         id="path105" />
    </clipPath>
    <clipPath
       id="0e038fc420">
      <path
         d="m 416.53516,304.90625 c 6.3125,0 8.96093,-5.4375 8.96093,-10.66016 0,-5.21875 -2.64843,-10.66015 -8.96093,-10.66015 -6.3086,0 -8.96094,5.4414 -8.96094,10.66015 0,5.22266 2.65234,10.66016 8.96094,10.66016 m 0,-24.21875 c 8.23046,0 12.40234,6.53125 12.40234,13.55859 0,7.03125 -4.17188,13.5625 -12.40234,13.5625 -8.23047,0 -12.39844,-6.53125 -12.39844,-13.5625 0,-7.02734 4.16797,-13.55859 12.39844,-13.55859"
         clip-rule="nonzero"
         id="path106" />
    </clipPath>
    <clipPath
       id="66c640edf1">
      <path
         d="M 0,0.652344 H 24.972656 V 27.921875 H 0 Z m 0,0"
         clip-rule="nonzero"
         id="path107" />
    </clipPath>
    <clipPath
       id="a2399b44cf">
      <path
         d="m 12.535156,24.90625 c 6.3125,0 8.960938,-5.4375 8.960938,-10.660156 0,-5.21875 -2.648438,-10.660156 -8.960938,-10.660156 -6.308594,0 -8.960937,5.441406 -8.960937,10.660156 0,5.222656 2.652343,10.660156 8.960937,10.660156 m 0,-24.21875 c 8.230469,0 12.402344,6.53125 12.402344,13.558594 0,7.03125 -4.171875,13.5625 -12.402344,13.5625 -8.230468,0 -12.398437,-6.53125 -12.398437,-13.5625 C 0.136719,7.21875 4.304688,0.6875 12.535156,0.6875"
         clip-rule="nonzero"
         id="path108" />
    </clipPath>
    <clipPath
       id="d4bca000c3">
      <rect
         x="0"
         width="25"
         y="0"
         height="28"
         id="rect108" />
    </clipPath>
    <clipPath
       id="8dcb065a00">
      <path
         d="m 458.13672,281.30859 h 3.4375 v 25.88672 h -3.4375 z m 0,0"
         clip-rule="nonzero"
         id="path109" />
    </clipPath>
    <clipPath
       id="e1c1ca02c0">
      <path
         d="m 0.136719,0.308594 h 3.4375 v 25.886718 h -3.4375 z m 0,0"
         clip-rule="nonzero"
         id="path110" />
    </clipPath>
    <clipPath
       id="30c0f361a9">
      <rect
         x="0"
         width="4"
         y="0"
         height="27"
         id="rect110" />
    </clipPath>
    <clipPath
       id="60e40a2f90">
      <path
         d="m 466,280.65234 h 23.30469 v 27.32032 H 466 Z m 0,0"
         clip-rule="nonzero"
         id="path111" />
    </clipPath>
    <clipPath
       id="95b5fd6d5b">
      <path
         d="m 485.58594,289.09766 c -0.73047,-3.66016 -3.66016,-5.51172 -7.25,-5.51172 -6.16016,0 -8.76953,5.08203 -8.76953,10.48047 0,5.91015 2.60937,10.83984 8.80859,10.83984 4.53125,0 7.14062,-3.1875 7.46875,-7.46875 h 3.45312 c -0.65234,6.44922 -4.67968,10.37109 -11.20312,10.37109 -8.04688,0 -11.95703,-5.95312 -11.95703,-13.49218 0,-7.50782 4.27734,-13.62891 12.25781,-13.62891 5.40234,0 9.85938,2.89844 10.66016,8.41016 z m 0,0"
         clip-rule="nonzero"
         id="path112" />
    </clipPath>
    <clipPath
       id="ad6b5691b1">
      <path
         d="M 0.078125,0.652344 H 23.304688 V 27.921875 H 0.078125 Z m 0,0"
         clip-rule="nonzero"
         id="path113" />
    </clipPath>
    <clipPath
       id="8fb95c1a56">
      <path
         d="m 19.585938,9.097656 c -0.730469,-3.660156 -3.660157,-5.511718 -7.25,-5.511718 -6.160157,0 -8.769532,5.082031 -8.769532,10.480468 0,5.910156 2.609375,10.839844 8.808594,10.839844 4.53125,0 7.140625,-3.1875 7.46875,-7.46875 h 3.453125 c -0.652344,6.449219 -4.679687,10.371094 -11.203125,10.371094 -8.046875,0 -11.957031,-5.953125 -11.957031,-13.492188 0,-7.507812 4.277343,-13.628906 12.257812,-13.628906 5.402344,0 9.859375,2.898438 10.660157,8.410156 z m 0,0"
         clip-rule="nonzero"
         id="path114" />
    </clipPath>
    <clipPath
       id="ae92812d2e">
      <rect
         x="0"
         width="24"
         y="0"
         height="28"
         id="rect114" />
    </clipPath>
    <clipPath
       id="5492b098f3">
      <path
         d="m 510.63672,281.30859 h 3.4375 v 11.12891 h -3.4375 z m -17.07031,0 h 3.4375 v 11.12891 h -3.4375 z m 0,11.12891 h 20.50781 v 2.89844 h -20.50781 z m 0,2.89844 h 3.4375 v 11.85937 h -3.4375 z m 17.07031,0 h 3.4375 v 11.85937 h -3.4375 z m 0,0"
         clip-rule="nonzero"
         id="path115" />
    </clipPath>
    <clipPath
       id="8dd5695e58">
      <path
         d="m 17.636719,0.308594 h 3.4375 V 11.4375 h -3.4375 z m -17.070313,0 h 3.4375 V 11.4375 h -3.4375 z m 0,11.128906 h 20.507813 v 2.898438 H 0.566406 Z m 0,2.898438 h 3.4375 v 11.859374 h -3.4375 z m 17.070313,0 h 3.4375 v 11.859374 h -3.4375 z m 0,0"
         clip-rule="nonzero"
         id="path116" />
    </clipPath>
    <clipPath
       id="b670dee587">
      <rect
         x="0"
         width="22"
         y="0"
         height="27"
         id="rect116" />
    </clipPath>
    <clipPath
       id="dfa9bcd913">
      <path
         d="m 519.74609,281.30859 h 17.98047 v 2.89844 h -17.98047 z m 0,2.89844 h 3.44922 v 8.23047 h -3.44922 z m 0,8.23047 h 17.98828 v 2.89844 h -17.98828 z m 0,2.89844 h 3.44922 v 8.96093 h -3.44922 z m 0,8.96093 h 17.98828 v 2.89844 h -17.98828 z m 0,0"
         clip-rule="nonzero"
         id="path117" />
    </clipPath>
    <clipPath
       id="2cdbba0fa6">
      <path
         d="M 0.746094,0.308594 H 18.726562 V 3.207031 H 0.746094 Z m 0,2.898437 H 4.195312 V 11.4375 H 0.746094 Z m 0,8.230469 h 17.988281 v 2.898438 H 0.746094 Z m 0,2.898438 h 3.449218 v 8.960937 H 0.746094 Z m 0,8.960937 h 17.988281 v 2.898437 H 0.746094 Z m 0,0"
         clip-rule="nonzero"
         id="path118" />
    </clipPath>
    <clipPath
       id="17c439b7c0">
      <rect
         x="0"
         width="19"
         y="0"
         height="27"
         id="rect118" />
    </clipPath>
    <clipPath
       id="80ee3899ea">
      <path
         d="M 375.75391,281.22266 H 400 v 26.75 h -24.24609 z m 0,0"
         clip-rule="nonzero"
         id="path119" />
    </clipPath>
    <clipPath
       id="f5047a4bb3">
      <path
         d="m 396.69531,281.30859 h -0.28906 l -8.46875,22.76953 -8.21094,-22.76953 h -3.80859 v 25.88672 h 3.25781 v -17.32812 l 6.16016,16.17187 c 0.42187,1.06641 1.44922,1.76953 2.60156,1.76953 1.14844,0 2.17969,-0.70312 2.59766,-1.76953 l 6.16015,-16.17187 v 17.32812 h 3.26172 v -25.88672 z m 0,0"
         clip-rule="nonzero"
         id="path120" />
    </clipPath>
    <clipPath
       id="55cfdee7e6">
      <path
         d="M 0.839844,0.28125 H 25 V 26.921875 H 0.839844 Z m 0,0"
         clip-rule="nonzero"
         id="path121" />
    </clipPath>
    <clipPath
       id="db8b5cb635">
      <path
         d="M 21.695312,0.308594 H 21.40625 L 12.9375,23.078125 4.726562,0.308594 H 0.917969 V 26.195312 H 4.175781 V 8.867188 l 6.160157,16.171874 c 0.421874,1.066407 1.449218,1.769532 2.601562,1.769532 1.148438,0 2.179688,-0.703125 2.597656,-1.769532 L 21.695312,8.867188 v 17.328124 h 3.261719 V 0.308594 Z m 0,0"
         clip-rule="nonzero"
         id="path122" />
    </clipPath>
    <clipPath
       id="2a43bc96fe">
      <rect
         x="0"
         width="25"
         y="0"
         height="27"
         id="rect122" />
    </clipPath>
  </defs>
  <g
     clip-path="url(#7d588a0ecf)"
     id="g244"
     transform="translate(-254.26952,-244.95312)">
    <g
       clip-path="url(#e2a8b22491)"
       id="g243">
      <g
         transform="translate(254,244)"
         id="g242">
        <g
           clip-path="url(#f7ab4eab39)"
           id="g241">
          <g
             clip-path="url(#15ceb69957)"
             id="g240">
            <g
               clip-path="url(#6dd994715f)"
               id="g239">
              <rect
                 x="-428.23999"
                 width="1140.48"
                 fill="#f7f5f1"
                 height="881.28003"
                 y="-378.64001"
                 fill-opacity="1"
                 id="rect238" />
            </g>
          </g>
        </g>
      </g>
    </g>
  </g>
  <g
     clip-path="url(#85d5ccde56)"
     id="g250"
     transform="translate(-254.26952,-244.95312)">
    <g
       clip-path="url(#2d76610541)"
       id="g249">
      <g
         transform="translate(292,318)"
         id="g248">
        <g
           clip-path="url(#66a8c11758)"
           id="g247">
          <g
             clip-path="url(#a831db05ee)"
             id="g246">
            <g
               clip-path="url(#6a69feb23c)"
               id="g245">
              <rect
                 x="-466.23999"
                 width="1140.48"
                 fill="#f7f5f1"
                 height="881.28003"
                 y="-452.64001"
                 fill-opacity="1"
                 id="rect244" />
            </g>
          </g>
        </g>
      </g>
    </g>
  </g>
  <g
     clip-path="url(#57c7d50187)"
     id="g256"
     transform="translate(-254.26952,-244.95312)">
    <g
       clip-path="url(#fb146ec508)"
       id="g255">
      <g
         transform="translate(254,301)"
         id="g254">
        <g
           clip-path="url(#4365dc07ce)"
           id="g253">
          <g
             clip-path="url(#5d314cf9f4)"
             id="g252">
            <g
               clip-path="url(#5c56dcc8c4)"
               id="g251">
              <rect
                 x="-428.23999"
                 width="1140.48"
                 fill="#f7f5f1"
                 height="881.28003"
                 y="-435.64001"
                 fill-opacity="1"
                 id="rect250" />
            </g>
          </g>
        </g>
      </g>
    </g>
  </g>
  <g
     clip-path="url(#c726e8cc66)"
     id="g262"
     transform="translate(-254.26952,-244.95312)">
    <g
       clip-path="url(#95e1e67b21)"
       id="g261">
      <g
         transform="translate(375,244)"
         id="g260">
        <g
           clip-path="url(#80d3ec8c33)"
           id="g259">
          <g
             clip-path="url(#800401ee64)"
             id="g258">
            <g
               clip-path="url(#2bc4c1bb39)"
               id="g257">
              <rect
                 x="-549.23999"
                 width="1140.48"
                 fill="#f7f5f1"
                 height="881.28003"
                 y="-378.64001"
                 fill-opacity="1"
                 id="rect256" />
            </g>
          </g>
        </g>
      </g>
    </g>
  </g>
  <g
     clip-path="url(#0f6cecfc66)"
     id="g268"
     transform="translate(-254.26952,-244.95312)">
    <g
       clip-path="url(#f5bedf373f)"
       id="g267">
      <g
         transform="translate(401,244)"
         id="g266">
        <g
           clip-path="url(#7914e2b035)"
           id="g265">
          <g
             clip-path="url(#e2370b894c)"
             id="g264">
            <g
               clip-path="url(#b316bc2491)"
               id="g263">
              <rect
                 x="-575.23999"
                 width="1140.48"
                 fill="#f7f5f1"
                 height="881.28003"
                 y="-378.64001"
                 fill-opacity="1"
                 id="rect262" />
            </g>
          </g>
        </g>
      </g>
    </g>
  </g>
  <g
     clip-path="url(#9e00131064)"
     id="g274"
     transform="translate(-254.26952,-244.95312)">
    <g
       clip-path="url(#af44f1308e)"
       id="g273">
      <g
         transform="translate(430,245)"
         id="g272">
        <g
           clip-path="url(#6f063d76f4)"
           id="g271">
          <g
             clip-path="url(#29485efddf)"
             id="g270">
            <g
               clip-path="url(#30de08a1a0)"
               id="g269">
              <rect
                 x="-604.23999"
                 width="1140.48"
                 fill="#f7f5f1"
                 height="881.28003"
                 y="-379.64001"
                 fill-opacity="1"
                 id="rect268" />
            </g>
          </g>
        </g>
      </g>
    </g>
  </g>
  <g
     clip-path="url(#60789df390)"
     id="g280"
     transform="translate(-254.26952,-244.95312)">
    <g
       clip-path="url(#32f5fb9c95)"
       id="g279">
      <g
         transform="translate(433,281)"
         id="g278">
        <g
           clip-path="url(#526994602e)"
           id="g277">
          <g
             clip-path="url(#465cfe7227)"
             id="g276">
            <g
               clip-path="url(#c3a6275a1c)"
               id="g275">
              <rect
                 x="-607.23999"
                 width="1140.48"
                 fill="#f7f5f1"
                 height="881.28003"
                 y="-415.64001"
                 fill-opacity="1"
                 id="rect274" />
            </g>
          </g>
        </g>
      </g>
    </g>
  </g>
  <g
     clip-path="url(#f9f17ade6b)"
     id="g286"
     transform="translate(-254.26952,-244.95312)">
    <g
       clip-path="url(#d5c703e01f)"
       id="g285">
      <g
         transform="translate(453,244)"
         id="g284">
        <g
           clip-path="url(#2297631f37)"
           id="g283">
          <g
             clip-path="url(#afd0ff80ed)"
             id="g282">
            <g
               clip-path="url(#7397114c01)"
               id="g281">
              <rect
                 x="-627.23999"
                 width="1140.48"
                 fill="#f7f5f1"
                 height="881.28003"
                 y="-378.64001"
                 fill-opacity="1"
                 id="rect280" />
            </g>
          </g>
        </g>
      </g>
    </g>
  </g>
  <g
     clip-path="url(#243f18ddc0)"
     id="g292"
     transform="translate(-254.26952,-244.95312)">
    <g
       clip-path="url(#0e038fc420)"
       id="g291">
      <g
         transform="translate(404,280)"
         id="g290">
        <g
           clip-path="url(#d4bca000c3)"
           id="g289">
          <g
             clip-path="url(#66c640edf1)"
             id="g288">
            <g
               clip-path="url(#a2399b44cf)"
               id="g287">
              <rect
                 x="-578.23999"
                 width="1140.48"
                 fill="#f7f5f1"
                 height="881.28003"
                 y="-414.64001"
                 fill-opacity="1"
                 id="rect286" />
            </g>
          </g>
        </g>
      </g>
    </g>
  </g>
  <g
     clip-path="url(#8dcb065a00)"
     id="g296"
     transform="translate(-254.26952,-244.95312)">
    <g
       transform="translate(458,281)"
       id="g295">
      <g
         clip-path="url(#30c0f361a9)"
         id="g294">
        <g
           clip-path="url(#e1c1ca02c0)"
           id="g293">
          <rect
             x="-632.23999"
             width="1140.48"
             fill="#f7f5f1"
             height="881.28003"
             y="-415.64001"
             fill-opacity="1"
             id="rect292" />
        </g>
      </g>
    </g>
  </g>
  <g
     clip-path="url(#60e40a2f90)"
     id="g302"
     transform="translate(-254.26952,-244.95312)">
    <g
       clip-path="url(#95b5fd6d5b)"
       id="g301">
      <g
         transform="translate(466,280)"
         id="g300">
        <g
           clip-path="url(#ae92812d2e)"
           id="g299">
          <g
             clip-path="url(#ad6b5691b1)"
             id="g298">
            <g
               clip-path="url(#8fb95c1a56)"
               id="g297">
              <rect
                 x="-640.23999"
                 width="1140.48"
                 fill="#f7f5f1"
                 height="881.28003"
                 y="-414.64001"
                 fill-opacity="1"
                 id="rect296" />
            </g>
          </g>
        </g>
      </g>
    </g>
  </g>
  <g
     clip-path="url(#5492b098f3)"
     id="g306"
     transform="translate(-254.26952,-244.95312)">
    <g
       transform="translate(493,281)"
       id="g305">
      <g
         clip-path="url(#b670dee587)"
         id="g304">
        <g
           clip-path="url(#8dd5695e58)"
           id="g303">
          <rect
             x="-667.23999"
             width="1140.48"
             fill="#f7f5f1"
             height="881.28003"
             y="-415.64001"
             fill-opacity="1"
             id="rect302" />
        </g>
      </g>
    </g>
  </g>
  <g
     clip-path="url(#dfa9bcd913)"
     id="g310"
     transform="translate(-254.26952,-244.95312)">
    <g
       transform="translate(519,281)"
       id="g309">
      <g
         clip-path="url(#17c439b7c0)"
         id="g308">
        <g
           clip-path="url(#2cdbba0fa6)"
           id="g307">
          <rect
             x="-693.23999"
             width="1140.48"
             fill="#f7f5f1"
             height="881.28003"
             y="-415.64001"
             fill-opacity="1"
             id="rect306" />
        </g>
      </g>
    </g>
  </g>
  <g
     clip-path="url(#80ee3899ea)"
     id="g316"
     transform="translate(-254.26952,-244.95312)">
    <g
       clip-path="url(#f5047a4bb3)"
       id="g315">
      <g
         transform="translate(375,281)"
         id="g314">
        <g
           clip-path="url(#2a43bc96fe)"
           id="g313">
          <g
             clip-path="url(#55cfdee7e6)"
             id="g312">
            <g
               clip-path="url(#db8b5cb635)"
               id="g311">
              <rect
                 x="-549.23999"
                 width="1140.48"
                 fill="#f7f5f1"
                 height="881.28003"
                 y="-415.64001"
                 fill-opacity="1"
                 id="rect310" />
            </g>
          </g>
        </g>
      </g>
    </g>
  </g>
</svg>
